<?xml version="1.0" encoding="UTF-8"?>
<!DOCTYPE svg PUBLIC "-//W3C//DTD SVG 1.1//EN" "http://www.w3.org/Graphics/SVG/1.1/DTD/svg11.dtd">
<svg xmlns="http://www.w3.org/2000/svg" version="1.1" width="2000px" height="666px" style="shape-rendering:geometricPrecision; text-rendering:geometricPrecision; image-rendering:optimizeQuality; fill-rule:evenodd; clip-rule:evenodd" xmlns:xlink="http://www.w3.org/1999/xlink">
<g><path style="opacity:1" fill="#e20e17" d="M 918.5,575.5 C 991.967,567.517 1044.47,530.183 1076,463.5C 1084.93,437.537 1093.77,411.537 1102.5,385.5C 1126.49,384.667 1150.49,384.167 1174.5,384C 1155.58,370.289 1136.74,356.455 1118,342.5C 1117.33,340.833 1117.33,339.167 1118,337.5C 1125.43,316.063 1132.26,294.729 1138.5,273.5C 1119.58,287.54 1100.41,301.207 1081,314.5C 1061.15,301.24 1041.82,287.24 1023,272.5C 1029.61,295.445 1036.78,318.278 1044.5,341C 1025.17,355 1005.83,369 986.5,383C 1010.5,383.441 1034.5,383.941 1058.5,384.5C 1060.76,392.119 1062.93,399.786 1065,407.5C 1067.54,434.92 1057.37,456.086 1034.5,471C 1024.35,476.413 1013.51,478.913 1002,478.5C 942.519,475.605 900.186,447.272 875,393.5C 865.26,368.715 861.926,343.048 865,316.5C 875.242,237.441 914.742,178.274 983.5,139C 1003.97,128.011 1025.63,120.511 1048.5,116.5C 1054.45,115.505 1060.45,114.672 1066.5,114C 1059.94,113.34 1053.61,113.84 1047.5,115.5C 934.503,130.763 846.336,185.43 783,279.5C 755.676,322.643 737.51,369.31 728.5,419.5C 711.223,375.162 706.723,329.495 715,282.5C 724.268,232.292 746.435,188.959 781.5,152.5C 784.427,151.243 786.761,149.243 788.5,146.5C 827.446,108.53 874.112,85.6962 928.5,78C 1020.25,68.0169 1096.42,97.5169 1157,166.5C 1215.15,241.82 1229.15,324.82 1199,415.5C 1169.86,488.64 1118.36,538.807 1044.5,566C 1003.26,579.445 961.264,582.612 918.5,575.5 Z"/></g>
<g><path style="opacity:0.985" fill="#fefffe" d="M -0.5,96.5 C 20.1667,96.5 40.8333,96.5 61.5,96.5C 61.5,233.5 61.5,370.5 61.5,507.5C 141.833,507.5 222.167,507.5 302.5,507.5C 302.5,524.5 302.5,541.5 302.5,558.5C 201.5,558.5 100.5,558.5 -0.5,558.5C -0.5,404.5 -0.5,250.5 -0.5,96.5 Z"/></g>
<g><path style="opacity:0.986" fill="#fefffe" d="M 354.5,96.5 C 452.5,96.5 550.5,96.5 648.5,96.5C 648.5,113.167 648.5,129.833 648.5,146.5C 571.167,146.5 493.833,146.5 416.5,146.5C 416.5,188.167 416.5,229.833 416.5,271.5C 383.949,272.205 364.116,288.539 357,320.5C 356.114,325.47 355.448,330.47 355,335.5C 354.5,255.834 354.333,176.167 354.5,96.5 Z"/></g>
<g><path style="opacity:0.983" fill="#fefffe" d="M 1393.5,96.5 C 1418.74,96.1721 1443.91,96.5054 1469,97.5C 1504.33,188.644 1539.16,279.977 1573.5,371.5C 1561.89,357.091 1545.89,347.591 1525.5,343C 1515.22,341.091 1504.89,339.591 1494.5,338.5C 1473.04,283.618 1451.87,228.618 1431,173.5C 1405.59,238.311 1380.76,303.311 1356.5,368.5C 1405.52,368.076 1454.52,368.576 1503.5,370C 1543.69,371.494 1572.86,389.994 1591,425.5C 1612.08,468.569 1629.91,512.902 1644.5,558.5C 1622.82,558.833 1601.16,558.5 1579.5,557.5C 1569.83,529.309 1559.66,501.309 1549,473.5C 1543.54,459.9 1536.54,447.233 1528,435.5C 1519.08,426.456 1508.24,421.29 1495.5,420C 1485.02,419.101 1474.52,418.601 1464,418.5C 1421.5,419.227 1379,419.727 1336.5,420C 1318.74,465.777 1301.07,511.611 1283.5,557.5C 1261.17,558.833 1238.83,558.833 1216.5,557.5C 1275.7,403.883 1334.7,250.216 1393.5,96.5 Z"/></g>
<g><path style="opacity:0.987" fill="#fefffe" d="M 1999.5,507.5 C 1999.5,524.5 1999.5,541.5 1999.5,558.5C 1898.5,558.5 1797.5,558.5 1696.5,558.5C 1696.5,404.833 1696.5,251.167 1696.5,97.5C 1717.17,97.5 1737.83,97.5 1758.5,97.5C 1758.5,234.167 1758.5,370.833 1758.5,507.5C 1838.83,507.5 1919.17,507.5 1999.5,507.5 Z"/></g>
<g><path style="opacity:1" fill="#f49c81" d="M 1048.5,116.5 C 1048.5,115.833 1048.17,115.5 1047.5,115.5C 1053.61,113.84 1059.94,113.34 1066.5,114C 1060.45,114.672 1054.45,115.505 1048.5,116.5 Z"/></g>
<g><path style="opacity:0.998" fill="#fffefd" d="M 1047.5,115.5 C 1048.17,115.5 1048.5,115.833 1048.5,116.5C 1025.63,120.511 1003.97,128.011 983.5,139C 914.742,178.274 875.242,237.441 865,316.5C 861.926,343.048 865.26,368.715 875,393.5C 900.186,447.272 942.519,475.605 1002,478.5C 1013.51,478.913 1024.35,476.413 1034.5,471C 1057.37,456.086 1067.54,434.92 1065,407.5C 1062.93,399.786 1060.76,392.119 1058.5,384.5C 1034.5,383.941 1010.5,383.441 986.5,383C 1005.83,369 1025.17,355 1044.5,341C 1036.78,318.278 1029.61,295.445 1023,272.5C 1041.82,287.24 1061.15,301.24 1081,314.5C 1100.41,301.207 1119.58,287.54 1138.5,273.5C 1132.26,294.729 1125.43,316.063 1118,337.5C 1117.33,339.167 1117.33,340.833 1118,342.5C 1136.74,356.455 1155.58,370.289 1174.5,384C 1150.49,384.167 1126.49,384.667 1102.5,385.5C 1093.77,411.537 1084.93,437.537 1076,463.5C 1044.47,530.183 991.967,567.517 918.5,575.5C 839.781,559.569 780.614,516.902 741,447.5C 735.998,438.499 731.831,429.166 728.5,419.5C 737.51,369.31 755.676,322.643 783,279.5C 846.336,185.43 934.503,130.763 1047.5,115.5 Z"/></g>
<g><path style="opacity:0.953" fill="#f5886e" d="M 788.5,146.5 C 786.761,149.243 784.427,151.243 781.5,152.5C 783.239,149.757 785.573,147.757 788.5,146.5 Z"/></g>
<g><path style="opacity:0.987" fill="#fefffe" d="M 469.5,290.5 C 506.5,290.5 543.5,290.5 580.5,290.5C 580.5,307.167 580.5,323.833 580.5,340.5C 540.815,340.089 501.148,340.589 461.5,342C 438.977,345.187 425.477,358.02 421,380.5C 419.013,390.077 417.68,399.743 417,409.5C 416.5,442.498 416.333,475.498 416.5,508.5C 496.833,508.5 577.167,508.5 657.5,508.5C 657.5,525.167 657.5,541.833 657.5,558.5C 556.5,558.5 455.5,558.5 354.5,558.5C 354.333,506.832 354.5,455.166 355,403.5C 355.754,375.459 363.754,349.792 379,326.5C 393.906,309.127 412.739,298.627 435.5,295C 446.917,292.991 458.25,291.491 469.5,290.5 Z"/></g>
</svg>
